<svg width="26" height="26" viewBox="0 0 26 26" fill="none" xmlns="http://www.w3.org/2000/svg">
<path d="M23.8334 4.34415C22.75 4.87498 21.6884 5.09057 20.5834 5.41665C19.3689 4.04623 17.5684 3.9704 15.8384 4.61823C14.1083 5.26607 12.9751 6.8499 13 8.66665V9.74998C9.4846 9.8399 6.35377 8.23873 4.33335 5.41665C4.33335 5.41665 -0.197147 13.4691 8.66669 17.3333C6.63869 18.6842 4.6161 19.5953 2.16669 19.5C5.75035 21.4532 9.65577 22.1249 13.0369 21.1434C16.9152 20.0167 20.1024 17.1102 21.3254 12.7562C21.6903 11.432 21.8715 10.064 21.8639 8.69048C21.8617 8.42073 23.4997 5.68748 23.8334 4.34307V4.34415Z" fill="#4AB4F0"/>
</svg>
